<?xml version="1.0" encoding="UTF-8" standalone="no"?>
<svg
   xmlns:dc="http://purl.org/dc/elements/1.1/"
   xmlns:cc="http://creativecommons.org/ns#"
   xmlns:rdf="http://www.w3.org/1999/02/22-rdf-syntax-ns#"
   xmlns:svg="http://www.w3.org/2000/svg"
   xmlns="http://www.w3.org/2000/svg"
   xmlns:sodipodi="http://sodipodi.sourceforge.net/DTD/sodipodi-0.dtd"
   xmlns:inkscape="http://www.inkscape.org/namespaces/inkscape"
   width="400"
   height="400"
   viewBox="0 0 105.83333 105.83334"
   version="1.1"
   id="svg8"
   inkscape:version="1.0 (4035a4fb49, 2020-05-01)"
   sodipodi:docname="decor.svg"
   inkscape:export-filename="C:\Users\fcame\DevProjects\ReactDeploy\Kintaro\kintaro\public\decor.png"
   inkscape:export-xdpi="107.46"
   inkscape:export-ydpi="107.46">
  <defs
     id="defs2" />
  <sodipodi:namedview
     id="base"
     pagecolor="#ffffff"
     bordercolor="#666666"
     borderopacity="1.0"
     inkscape:pageopacity="0.0"
     inkscape:pageshadow="2"
     inkscape:zoom="1.4"
     inkscape:cx="-28.598506"
     inkscape:cy="-13.074419"
     inkscape:document-units="px"
     inkscape:current-layer="layer1"
     inkscape:document-rotation="0"
     showgrid="false"
     units="px"
     inkscape:pagecheckerboard="true"
     inkscape:window-width="1624"
     inkscape:window-height="1020"
     inkscape:window-x="190"
     inkscape:window-y="0"
     inkscape:window-maximized="0" />
  <metadata
     id="metadata5">
    <rdf:RDF>
      <cc:Work
         rdf:about="">
        <dc:format>image/svg+xml</dc:format>
        <dc:type
           rdf:resource="http://purl.org/dc/dcmitype/StillImage" />
        <dc:title />
      </cc:Work>
    </rdf:RDF>
  </metadata>
  <g
     inkscape:label="Layer 1"
     inkscape:groupmode="layer"
     id="layer1">
    <g
       transform="translate(0.3779762,-0.3779762)"
       id="g1096">
      <path
         d="M 5.3501039,0.78058415 A 6.234066,6.2338967 0 0 1 -1.7456953,6.0104718 6.234066,6.2338967 0 0 1 -6.9778775,-1.0835478 6.234066,6.2338967 0 0 1 0.11474709,-6.3177399 6.234066,6.2338967 0 0 1 5.3512328,0.77310382"
         sodipodi:arc-type="arc"
         sodipodi:open="true"
         sodipodi:end="0.1491684"
         sodipodi:start="0.15038193"
         sodipodi:ry="6.2338967"
         sodipodi:rx="6.234066"
         sodipodi:cy="-0.15335184"
         sodipodi:cx="-0.813604"
         sodipodi:type="arc"
         id="path839"
         style="opacity:0.1;mix-blend-mode:normal;fill:none;fill-opacity:1;stroke:#323030;stroke-width:0.759638;stroke-linecap:round;stroke-linejoin:round;stroke-miterlimit:4;stroke-dasharray:none;stroke-opacity:1;paint-order:stroke fill markers" />
      <path
         d="M 11.952391,1.7810498 A 12.911715,12.911886 0 0 1 -2.7441068,12.613394 12.911715,12.911886 0 0 1 -13.580765,-2.080012 12.911715,12.911886 0 0 1 1.1091571,-12.921271 12.911715,12.911886 0 0 1 11.954729,1.7655562"
         sodipodi:arc-type="arc"
         sodipodi:open="true"
         sodipodi:end="0.1491684"
         sodipodi:start="0.15038193"
         sodipodi:ry="12.911886"
         sodipodi:rx="12.911715"
         sodipodi:cy="-0.15335432"
         sodipodi:cx="-0.81360149"
         sodipodi:type="arc"
         id="path1059"
         style="opacity:0.1;fill:none;stroke:#323030;stroke-width:0.79375;stroke-linecap:round;stroke-linejoin:round;stroke-miterlimit:4;stroke-dasharray:none;stroke-opacity:1;paint-order:stroke fill markers" />
      <path
         style="opacity:0.1;fill:none;stroke:#323030;stroke-width:0.661458;stroke-linecap:round;stroke-linejoin:round;stroke-miterlimit:4;stroke-dasharray:none;stroke-opacity:1;paint-order:stroke fill markers"
         id="path1059-2"
         sodipodi:type="arc"
         sodipodi:cx="-0.81359637"
         sodipodi:cy="-0.15335947"
         sodipodi:rx="26.203875"
         sodipodi:ry="26.20377"
         sodipodi:start="0.15038193"
         sodipodi:end="0.1491684"
         sodipodi:open="true"
         sodipodi:arc-type="arc"
         d="M 25.094539,3.7723783 A 26.203875,26.20377 0 0 1 -4.7314896,25.755862 26.203875,26.20377 0 0 1 -26.724109,-4.0633764 26.203875,26.20377 0 0 1 3.0885752,-26.064954 26.203875,26.20377 0 0 1 25.099284,3.7409352" />
      <path
         d="M 38.311097,5.7749588 A 39.571293,39.570759 0 0 1 -6.7301246,38.972593 39.571293,39.570759 0 0 1 -39.94187,-6.0579478 39.571293,39.570759 0 0 1 5.0792006,-39.282905 39.571293,39.570759 0 0 1 38.318263,5.7274761"
         sodipodi:arc-type="arc"
         sodipodi:open="true"
         sodipodi:end="0.1491684"
         sodipodi:start="0.15038193"
         sodipodi:ry="39.570759"
         sodipodi:rx="39.571293"
         sodipodi:cy="-0.15336464"
         sodipodi:cx="-0.81359118"
         sodipodi:type="arc"
         id="path1059-2-1"
         style="opacity:0.1;fill:none;stroke:#323030;stroke-width:0.529167;stroke-linecap:round;stroke-linejoin:round;stroke-miterlimit:4;stroke-dasharray:none;stroke-opacity:1;paint-order:stroke fill markers" />
      <path
         style="opacity:0.1;fill:none;stroke:#323030;stroke-width:0.396875;stroke-linecap:round;stroke-linejoin:round;stroke-miterlimit:4;stroke-dasharray:none;stroke-opacity:1;paint-order:stroke fill markers"
         id="path1059-2-1-0"
         sodipodi:type="arc"
         sodipodi:cx="-0.81358606"
         sodipodi:cy="-0.15336978"
         sodipodi:rx="52.866356"
         sodipodi:ry="52.865047"
         sodipodi:start="0.15038193"
         sodipodi:end="0.1491684"
         sodipodi:open="true"
         sodipodi:arc-type="arc"
         d="M 51.456116,7.7666476 A 52.866356,52.865047 0 0 1 -8.7179414,52.117439 52.866356,52.865047 0 0 1 -53.088085,-8.0416711 52.866356,52.865047 0 0 1 7.059051,-52.428965 52.866356,52.865047 0 0 1 51.465689,7.7032125" />
      <path
         d="M 64.332342,9.7180291 A 65.889557,65.890289 0 0 1 -10.665111,64.996264 65.889557,65.890289 0 0 1 -65.965481,-9.9852483 65.889557,65.890289 0 0 1 8.9984168,-65.308979 65.889557,65.890289 0 0 1 64.344273,9.6389645"
         sodipodi:arc-type="arc"
         sodipodi:open="true"
         sodipodi:end="0.1491684"
         sodipodi:start="0.15038193"
         sodipodi:ry="65.890289"
         sodipodi:rx="65.889557"
         sodipodi:cy="-0.15337484"
         sodipodi:cx="-0.81358099"
         sodipodi:type="arc"
         id="path1059-2-1-0-7"
         style="opacity:0.1;fill:none;stroke:#323030;stroke-width:0.264583;stroke-linecap:round;stroke-linejoin:round;stroke-miterlimit:4;stroke-dasharray:none;stroke-opacity:1;paint-order:stroke fill markers" />
    </g>
  </g>
</svg>
