<?xml version="1.0" encoding="UTF-8" standalone="no"?>
<svg
   xmlns:dc="http://purl.org/dc/elements/1.1/"
   xmlns:cc="http://creativecommons.org/ns#"
   xmlns:rdf="http://www.w3.org/1999/02/22-rdf-syntax-ns#"
   xmlns:svg="http://www.w3.org/2000/svg"
   xmlns="http://www.w3.org/2000/svg"
   xmlns:sodipodi="http://sodipodi.sourceforge.net/DTD/sodipodi-0.dtd"
   xmlns:inkscape="http://www.inkscape.org/namespaces/inkscape"
   sodipodi:docname="namelogo.svg"
   inkscape:version="1.0 (4035a4fb49, 2020-05-01)"
   id="svg8"
   version="1.1"
   viewBox="0 0 65.27619 18.889426"
   height="71.393105"
   width="246.71317">
  <defs
     id="defs2">
    <rect
       id="rect835"
       height="37.797619"
       width="96.005951"
       y="56.69643"
       x="52.160713" />
    <filter
       height="1.2980565"
       y="-0.14902827"
       width="1.2732185"
       x="-0.13660926"
       id="filter989"
       style="color-interpolation-filters:sRGB"
       inkscape:collect="always">
      <feGaussianBlur
         id="feGaussianBlur991"
         stdDeviation="0.90361324"
         inkscape:collect="always" />
    </filter>
  </defs>
  <sodipodi:namedview
     inkscape:window-maximized="0"
     inkscape:window-y="18"
     inkscape:window-x="172"
     inkscape:window-height="1020"
     inkscape:window-width="1624"
     fit-margin-bottom="0"
     fit-margin-right="0"
     fit-margin-left="0"
     fit-margin-top="0"
     units="px"
     showgrid="false"
     inkscape:document-rotation="0"
     inkscape:current-layer="layer1"
     inkscape:document-units="px"
     inkscape:cy="48.357812"
     inkscape:cx="67.006099"
     inkscape:zoom="1.979899"
     inkscape:pageshadow="2"
     inkscape:pageopacity="0.0"
     borderopacity="1.0"
     bordercolor="#666666"
     pagecolor="#ffffff"
     id="base" />
  <metadata
     id="metadata5">
    <rdf:RDF>
      <cc:Work
         rdf:about="">
        <dc:format>image/svg+xml</dc:format>
        <dc:type
           rdf:resource="http://purl.org/dc/dcmitype/StillImage" />
        <dc:title />
      </cc:Work>
    </rdf:RDF>
  </metadata>
  <g
     transform="translate(-46.710791,-52.398281)"
     id="layer1"
     inkscape:groupmode="layer"
     inkscape:label="Layer 1">
    <path
       d="m 64.66488,62.93306 a 7.9375,7.2760415 0 0 1 -9.034698,6.104189 7.9375,7.2760415 0 0 1 -6.661856,-8.279955 7.9375,7.2760415 0 0 1 9.030657,-6.109212 7.9375,7.2760415 0 0 1 6.667334,8.276248"
       sodipodi:arc-type="arc"
       sodipodi:open="true"
       sodipodi:end="0.1491684"
       sodipodi:start="0.15038193"
       sodipodi:ry="7.2760415"
       sodipodi:rx="7.9375"
       sodipodi:cy="61.842995"
       sodipodi:cx="56.816963"
       sodipodi:type="arc"
       id="path839"
       style="fill:#e01d1d;fill-opacity:1;stroke:none;stroke-width:1.02949;stroke-linecap:round;stroke-linejoin:round;paint-order:stroke fill markers;filter:url(#filter989)" />
    <g
       aria-label="Kintaro"
       transform="matrix(1.551362,0,0,1,-29.19677,0)"
       id="text833"
       style="font-style:normal;font-variant:normal;font-weight:bold;font-stretch:normal;font-size:10.5833px;line-height:1.25;font-family:Merienda;-inkscape-font-specification:'Merienda, Bold';font-variant-ligatures:normal;font-variant-caps:normal;font-variant-numeric:normal;font-variant-east-asian:normal;white-space:pre;shape-inside:url(#rect835)">
      <path
         d="m 52.141687,21.65298 q 0.08467,0.169333 0.09525,0.317499 0.02117,0.148166 0.02117,0.539748 0,0.391582 -0.264582,2.201327 l -0.09525,0.613831 q 1.428746,-1.174746 2.412992,-2.275409 0.984247,-1.111247 1.386413,-1.883828 0.349249,0.613832 0.349249,1.206496 0,0.582082 -0.603248,1.195913 -0.592665,0.613832 -1.799161,1.502829 0.740831,2.338909 1.661578,3.619488 0.391582,0.539749 0.99483,1.174747 -0.391582,0.105833 -0.783164,0.105833 -0.391582,0 -0.804331,-0.243416 -0.412749,-0.243416 -0.719665,-0.592665 -0.296332,-0.349249 -0.613831,-0.93133 -0.455082,-0.857248 -0.984247,-2.254243 -0.296332,0.222249 -0.645581,0.455082 -0.190499,1.576911 -0.190499,2.391825 0,0.804331 0.148166,1.15358 -0.899581,-0.232833 -1.227663,-0.613831 -0.328082,-0.391582 -0.328082,-1.079497 0,-0.402165 0.222249,-2.042577 0.391582,-2.719908 0.391582,-4.212153 0,-0.317499 -0.04233,-0.867831 0.804331,0.04233 1.174746,0.254 0.15875,0.08467 0.243416,0.264582 z"
         style="font-style:normal;font-variant:normal;font-weight:bold;font-stretch:normal;font-size:10.5833px;font-family:Merienda;-inkscape-font-specification:'Merienda, Bold';font-variant-ligatures:normal;font-variant-caps:normal;font-variant-numeric:normal;font-variant-east-asian:normal"
         id="path840" />
      <path
         d="m 57.389681,27.886544 q 0,-0.444499 0.169332,-1.608662 0.169333,-1.164163 0.169333,-1.809744 0,-0.645581 -0.0635,-0.99483 0.232833,-0.02117 0.433916,-0.02117 0.613831,0 0.846664,0.211666 0.243416,0.201083 0.243416,0.698498 0,0.158749 -0.264583,1.672161 -0.253999,1.502829 -0.264582,2.487076 0,0.973663 0.126999,1.259412 -0.825497,-0.211666 -1.111246,-0.634998 -0.285749,-0.433915 -0.285749,-1.259412 z m 1.439328,-5.3234 q -1.090079,0 -1.090079,-0.761998 0,-0.275165 0.158749,-0.751414 0.296332,-0.04233 0.518582,-0.04233 1.09008,0 1.09008,0.761997 0,0.275166 -0.15875,0.751415 -0.296332,0.04233 -0.518582,0.04233 z"
         style="font-style:normal;font-variant:normal;font-weight:bold;font-stretch:normal;font-size:10.5833px;font-family:Merienda;-inkscape-font-specification:'Merienda, Bold';font-variant-ligatures:normal;font-variant-caps:normal;font-variant-numeric:normal;font-variant-east-asian:normal"
         id="path842" />
      <path
         d="m 64.600215,23.515641 q 0.624415,0 0.888998,0.391582 0.275165,0.380999 0.275165,1.047747 0,0.656164 -0.211666,1.852077 -0.201082,1.195913 -0.201082,1.746244 0,0.539749 0.137583,0.793748 0.137583,0.243416 0.465665,0.423332 -0.137583,0.01058 -0.391582,0.01058 -0.888997,0 -1.269996,-0.275166 -0.370416,-0.275165 -0.370416,-0.96308 0,-0.391582 0.211666,-1.523995 0.211666,-1.142996 0.211666,-1.703911 0,-0.698498 -0.423332,-0.698498 -0.243416,0 -0.550331,0.285749 -0.306916,0.285749 -0.592665,0.783164 -0.285749,0.486832 -0.476249,1.259413 -0.190499,0.772581 -0.190499,1.545162 0,0.761997 0.0635,1.132413 -0.338666,0.02117 -0.444499,0.02117 -0.603248,0 -0.86783,-0.211666 -0.264583,-0.211666 -0.264583,-0.698497 0,-0.211666 0.222249,-1.629829 0.22225,-1.418162 0.22225,-2.254242 0,-0.846664 -0.179916,-1.555745 0.772581,0.243415 1.079496,0.698497 0.306916,0.444499 0.306916,1.02658 0,0.571499 -0.127,1.333496 0.349249,-1.185329 1.100664,-2.010827 0.751414,-0.825497 1.375828,-0.825497 z"
         style="font-style:normal;font-variant:normal;font-weight:bold;font-stretch:normal;font-size:10.5833px;font-family:Merienda;-inkscape-font-specification:'Merienda, Bold';font-variant-ligatures:normal;font-variant-caps:normal;font-variant-numeric:normal;font-variant-east-asian:normal"
         id="path844" />
      <path
         d="m 69.192872,25.970966 q -0.169333,0.941914 -0.264583,1.672162 -0.09525,0.730247 -0.09525,1.492245 0,0.761998 0.148167,1.09008 -0.814915,-0.211666 -1.12183,-0.645581 -0.306916,-0.444499 -0.306916,-1.24883 0,-0.709081 0.222249,-1.936744 0.22225,-1.238246 0.28575,-1.672161 -0.550332,0.09525 -1.174747,0.370416 -0.02117,-0.232833 -0.02117,-0.349249 0,-0.560915 0.338665,-0.761998 0.338666,-0.211666 0.973664,-0.222249 0.07408,-0.793748 0.07408,-1.142997 0,-0.349248 -0.01058,-0.582081 0,-0.232833 0,-0.349249 0.698497,0.07408 1.015996,0.423332 0.317499,0.338666 0.317499,0.973664 0,0.253999 -0.05292,0.709081 0.888997,-0.02117 1.301746,-0.349249 0.02117,0.211666 0.02117,0.317499 0,0.507998 -0.179916,0.709081 -0.179916,0.190499 -0.603248,0.190499 -0.423332,0 -0.645581,-0.01058 -0.05292,0.380999 -0.222249,1.322912 z"
         style="font-style:normal;font-variant:normal;font-weight:bold;font-stretch:normal;font-size:10.5833px;font-family:Merienda;-inkscape-font-specification:'Merienda, Bold';font-variant-ligatures:normal;font-variant-caps:normal;font-variant-numeric:normal;font-variant-east-asian:normal"
         id="path846" />
      <path
         d="m 72.555384,27.621961 q 0,0.497415 0.179916,0.814914 0.190499,0.306916 0.529165,0.306916 0.497415,0 0.941914,-0.582082 0.455082,-0.582081 0.719664,-1.492245 0.275166,-0.910164 0.275166,-1.725078 0,-0.825497 -0.0635,-1.333495 0.317499,-0.02117 0.444499,-0.02117 0.539748,0 0.814914,0.201083 0.275166,0.201082 0.275166,0.719664 0,0.201083 -0.254,1.640411 -0.253999,1.428746 -0.253999,2.296576 0,0.857248 0.328082,1.523996 -0.793747,-0.137583 -1.164163,-0.582082 -0.370415,-0.455082 -0.370415,-1.301746 0,-0.148166 0.04233,-0.571498 -0.285749,1.005414 -1.015997,1.619245 -0.730247,0.613831 -1.439328,0.613831 -0.698498,0 -1.132413,-0.518581 -0.423332,-0.529165 -0.423332,-1.492246 0,-0.96308 0.338665,-1.86266 0.349249,-0.910164 1.037164,-1.534579 0.687914,-0.634998 1.534578,-0.634998 0.486832,0 0.99483,0.232833 -1.068913,0.380999 -1.703911,1.502828 -0.634998,1.111247 -0.634998,2.18016 z"
         style="font-style:normal;font-variant:normal;font-weight:bold;font-stretch:normal;font-size:10.5833px;font-family:Merienda;-inkscape-font-specification:'Merienda, Bold';font-variant-ligatures:normal;font-variant-caps:normal;font-variant-numeric:normal;font-variant-east-asian:normal"
         id="path848" />
      <path
         d="m 79.601381,26.182632 q 0.380999,-1.375829 0.910164,-2.02141 0.539748,-0.656164 0.99483,-0.656164 0.465665,0 0.698498,0.349248 0.232832,0.338666 0.232832,0.888998 0,0.539748 -0.328082,0.99483 -0.317499,0.455082 -0.878414,0.455082 -0.148166,0 -0.349249,-0.08467 0.328082,-0.412748 0.328082,-0.99483 0,-0.338665 -0.275165,-0.338665 -0.201083,0 -0.433916,0.285749 -0.232832,0.275165 -0.444498,0.77258 -0.211666,0.486832 -0.359832,1.259413 -0.137583,0.761998 -0.137583,1.629828 0,0.105833 0.05292,0.899581 -0.338665,0.02117 -0.433915,0.02117 -0.603248,0 -0.867831,-0.211666 -0.264582,-0.211666 -0.264582,-0.698497 0,-0.211666 0.222249,-1.629829 0.222249,-1.418162 0.222249,-2.254242 0,-0.846664 -0.179916,-1.555745 0.772581,0.243415 1.079497,0.698497 0.306916,0.444499 0.306916,1.047747 0,0.592665 -0.09525,1.142996 z"
         style="font-style:normal;font-variant:normal;font-weight:bold;font-stretch:normal;font-size:10.5833px;font-family:Merienda;-inkscape-font-specification:'Merienda, Bold';font-variant-ligatures:normal;font-variant-caps:normal;font-variant-numeric:normal;font-variant-east-asian:normal"
         id="path850" />
      <path
         d="m 86.024287,24.319972 q -0.687915,0 -1.227663,0.93133 -0.539749,0.920747 -0.539749,1.841494 0,1.926161 0.994831,1.926161 0.709081,0 1.153579,-0.920747 0.444499,-0.931331 0.444499,-2.08491 0,-1.693328 -0.825497,-1.693328 z m 0.656164,-0.772581 q 0.634998,0 1.079497,0.624414 0.444498,0.624415 0.444498,1.672162 0,1.174746 -0.476248,2.158993 -0.529165,1.111246 -1.502829,1.534578 -0.550331,0.243416 -1.206496,0.243416 -0.920747,0 -1.608661,-0.709081 -0.677332,-0.719664 -0.677332,-2.05316 0,-1.344079 0.656165,-2.360076 0.656164,-1.02658 1.735661,-1.291162 0.116416,0 0.211666,0.07408 0.105833,0.0635 0.105833,0.137583 -1.068913,0.740831 -1.280579,2.063743 0.222249,-0.592665 0.539748,-1.02658 0.328082,-0.433915 0.677331,-0.656165 0.666748,-0.412748 1.301746,-0.412748 z"
         style="font-style:normal;font-variant:normal;font-weight:bold;font-stretch:normal;font-size:10.5833px;font-family:Merienda;-inkscape-font-specification:'Merienda, Bold';font-variant-ligatures:normal;font-variant-caps:normal;font-variant-numeric:normal;font-variant-east-asian:normal"
         id="path852" />
    </g>
    <path
       d="m 55.548476,57.20699 q 0.160004,0.185649 0.208008,0.360984 0.048,0.165022 0.048,0.577575 0,0.412553 -0.400014,2.176219 l -0.208006,0.928245 q 4.91215,-2.588773 6.080186,-4.383379 0.368011,0.474436 0.368011,1.072638 0,0.587889 -0.944028,1.227347 -0.944029,0.639457 -2.784085,1.485191 0.896028,1.804921 1.776054,2.784735 0.880027,0.9695 2.25607,1.908059 -0.320012,0.103138 -0.848027,0.103138 -0.528016,0 -1.152036,-0.247531 -0.608018,-0.247533 -1.088032,-0.618831 -0.464015,-0.371297 -0.944029,-0.959186 -0.736022,-0.88699 -1.520047,-2.279357 -0.07999,0.04126 -0.592017,0.268159 -0.496016,0.216591 -0.752024,0.340356 -0.304009,1.495507 -0.304009,2.320614 0,0.814793 0.224007,1.155149 -0.992031,-0.226904 -1.408043,-0.608517 -0.400012,-0.391925 -0.400012,-0.907617 0,-0.526005 0.33601,-2.12465 0.592019,-2.650654 0.592019,-4.104905 0,-0.309415 -0.06401,-0.845734 1.216038,0.04126 1.520047,0.371298 z"
       style="font-style:normal;font-variant:normal;font-weight:normal;font-stretch:normal;font-size:8.49701px;line-height:1.25;font-family:Merienda;-inkscape-font-specification:'Merienda, @wght=700';font-variant-ligatures:normal;font-variant-caps:normal;font-variant-numeric:normal;font-variant-east-asian:normal;font-variation-settings:'wght' 700;white-space:pre;shape-inside:url(#rect844);fill:#111111;fill-opacity:1;stroke-width:1.51186"
       id="path848-2" />
    <path
       d="m 68.894384,61.724448 q 0,-1.010755 -0.400013,-1.443936 -0.384012,-0.443495 -1.120033,-0.443495 -0.720023,0 -1.456045,0.464123 -0.736023,0.453808 -1.168036,1.134522 -0.416012,0.670399 -0.416012,1.40268 0,0.721969 0.432013,1.258289 0.432012,0.526005 1.31204,0.526005 1.248038,0 2.032061,-0.948873 0.784025,-0.948873 0.784025,-1.949315 z M 64.254243,61.32221 q 0.608017,-1.113894 1.632049,-1.619273 1.040031,-0.515691 2.096064,-0.515691 1.072033,0 1.776053,0.608516 0.704023,0.598202 0.704023,1.629586 0,1.134521 -0.672022,2.104021 -0.752022,1.072639 -2.176065,1.495507 -0.768025,0.237218 -1.696052,0.237218 -1.29604,0 -2.27207,-0.691028 -0.976029,-0.70134 -0.976029,-1.990569 0,-1.299543 0.864026,-2.248415 0.864027,-0.948873 2.352072,-1.320171 0.32001,0 0.32001,0.206277 -1.584049,0.670398 -1.952059,2.104022 z"
       style="font-style:normal;font-variant:normal;font-weight:normal;font-stretch:normal;font-size:8.49701px;line-height:1.25;font-family:Merienda;-inkscape-font-specification:'Merienda, @wght=700';font-variant-ligatures:normal;font-variant-caps:normal;font-variant-numeric:normal;font-variant-east-asian:normal;font-variation-settings:'wght' 700;white-space:pre;shape-inside:url(#rect844);fill:#111111;fill-opacity:1;stroke-width:1.51186"
       id="path850-8" />
    <path
       d="m 74.593556,61.920411 q 0.496017,-1.474877 1.440044,-2.124649 0.94403,-0.660085 1.840058,-0.660085 0.896026,0 1.392041,0.35067 0.512016,0.35067 0.512016,0.990128 0,0.629144 -0.560018,1.134521 -0.560016,0.495065 -1.536046,0.732283 l 0.192007,0.381611 q 0.528015,1.062325 1.536047,2.104022 1.008029,1.041697 1.632049,1.423309 -0.432014,0.09282 -0.832025,0.09282 -0.384011,0 -0.784024,-0.134079 -0.400013,-0.123766 -0.704022,-0.288789 -0.288008,-0.154707 -0.624018,-0.505377 -0.320012,-0.340356 -0.512017,-0.577575 -0.192006,-0.237218 -0.480014,-0.721967 -0.304009,-0.505379 -0.848027,-1.526448 -0.208006,0.01032 -0.608018,0.01032 -0.096,-0.05157 -0.096,-0.330042 0.720023,-0.01032 1.28004,-0.185649 0.560016,-0.175336 0.848024,-0.443495 0.60802,-0.546633 0.60802,-1.10358 0,-0.278474 -0.208006,-0.453809 -0.192006,-0.185649 -0.576019,-0.185649 -0.672019,0 -1.360042,0.577575 -0.68802,0.567261 -1.168034,1.567703 -0.464015,1.000441 -0.464015,2.093708 0,0.608515 0.096,0.9695 -0.384011,0.02062 -0.432013,0.02062 -0.752022,0 -1.120035,-0.206278 -0.35201,-0.206276 -0.35201,-0.639457 0,-0.443495 0.272008,-1.691469 0.864027,-3.836745 0.864027,-5.827315 0,-0.897303 -0.192005,-1.206718 0.928027,0.21659 1.296039,0.639457 0.384012,0.422867 0.384012,1.165463 0,0.515692 -0.32001,2.165905 -0.304009,1.650214 -0.416014,2.392809 z"
       style="font-style:normal;font-variant:normal;font-weight:normal;font-stretch:normal;font-size:8.49701px;line-height:1.25;font-family:Merienda;-inkscape-font-specification:'Merienda, @wght=700';font-variant-ligatures:normal;font-variant-caps:normal;font-variant-numeric:normal;font-variant-east-asian:normal;font-variation-settings:'wght' 700;white-space:pre;shape-inside:url(#rect844);fill:#111111;fill-opacity:1;stroke-width:1.51186"
       id="path852-4" />
    <path
       d="m 87.957465,61.724448 q 0,-1.010755 -0.40001,-1.443936 -0.384014,-0.443495 -1.120037,-0.443495 -0.720022,0 -1.456045,0.464123 -0.736023,0.453808 -1.168035,1.134522 -0.416012,0.670399 -0.416012,1.40268 0,0.721969 0.432012,1.258289 0.432014,0.526005 1.312042,0.526005 1.248037,0 2.032061,-0.948873 0.784024,-0.948873 0.784024,-1.949315 z M 83.317324,61.32221 q 0.608018,-1.113894 1.632051,-1.619273 1.040032,-0.515691 2.09606,-0.515691 1.072034,0 1.776056,0.608516 0.704022,0.598202 0.704022,1.629586 0,1.134521 -0.672021,2.104021 -0.752022,1.072639 -2.176065,1.495507 -0.768025,0.237218 -1.696054,0.237218 -1.296037,0 -2.272067,-0.691028 -0.976032,-0.70134 -0.976032,-1.990569 0,-1.299543 0.864026,-2.248415 0.864029,-0.948873 2.352075,-1.320171 0.320008,0 0.320008,0.206277 -1.584047,0.670398 -1.952059,2.104022 z"
       style="font-style:normal;font-variant:normal;font-weight:normal;font-stretch:normal;font-size:8.49701px;line-height:1.25;font-family:Merienda;-inkscape-font-specification:'Merienda, @wght=700';font-variant-ligatures:normal;font-variant-caps:normal;font-variant-numeric:normal;font-variant-east-asian:normal;font-variation-settings:'wght' 700;white-space:pre;shape-inside:url(#rect844);fill:#111111;fill-opacity:1;stroke-width:1.51186"
       id="path854" />
    <path
       d="m 93.880647,61.75539 q 0.576016,-1.340798 1.376042,-1.969942 0.816026,-0.639457 1.504048,-0.639457 0.704019,0 1.056029,0.340356 0.352012,0.330042 0.352012,0.845735 0,0.51569 -0.416012,0.897303 -0.416013,0.371298 -1.216038,0.371298 -0.256009,0 -0.400013,-0.02062 0.544017,-0.505377 0.544017,-1.031383 0,-0.371298 -0.464015,-0.371298 -0.368009,0 -0.784022,0.278474 -0.416015,0.278473 -0.800026,0.773537 -0.38401,0.495063 -0.640019,1.289229 -0.256008,0.794165 -0.256008,1.712097 0,0.103138 0.07999,0.876675 -0.416015,0.02062 -0.480015,0.02062 -1.408043,0 -1.408043,-0.88699 0,-0.206276 0.33601,-1.58833 0.33601,-1.382054 0.33601,-2.196847 0,-0.825107 -0.272007,-1.516133 0.944028,0.237218 1.312039,0.680713 0.384014,0.433181 0.384014,1.021069 0,0.577575 -0.144,1.113894 z"
       style="font-style:normal;font-variant:normal;font-weight:normal;font-stretch:normal;font-size:8.49701px;line-height:1.25;font-family:Merienda;-inkscape-font-specification:'Merienda, @wght=700';font-variant-ligatures:normal;font-variant-caps:normal;font-variant-numeric:normal;font-variant-east-asian:normal;font-variation-settings:'wght' 700;white-space:pre;shape-inside:url(#rect844);fill:#111111;fill-opacity:1;stroke-width:1.51186"
       id="path856" />
    <path
       d="m 105.23924,61.724448 q 0,-1.010755 -0.40001,-1.443936 -0.38401,-0.443495 -1.12003,-0.443495 -0.72003,0 -1.45605,0.464123 -0.73602,0.453808 -1.16803,1.134522 -0.41602,0.670399 -0.41602,1.40268 0,0.721969 0.43202,1.258289 0.43201,0.526005 1.31204,0.526005 1.24803,0 2.03206,-0.948873 0.78402,-0.948873 0.78402,-1.949315 z M 100.5991,61.32221 q 0.60802,-1.113894 1.63205,-1.619273 1.04003,-0.515691 2.09606,-0.515691 1.07204,0 1.77606,0.608516 0.70402,0.598202 0.70402,1.629586 0,1.134521 -0.67202,2.104021 -0.75202,1.072639 -2.17607,1.495507 -0.76802,0.237218 -1.69605,0.237218 -1.29604,0 -2.27207,-0.691028 -0.976027,-0.70134 -0.976027,-1.990569 0,-1.299543 0.864024,-2.248415 0.864033,-0.948873 2.352073,-1.320171 0.32001,0 0.32001,0.206277 -1.58405,0.670398 -1.95206,2.104022 z"
       style="font-style:normal;font-variant:normal;font-weight:normal;font-stretch:normal;font-size:8.49701px;line-height:1.25;font-family:Merienda;-inkscape-font-specification:'Merienda, @wght=700';font-variant-ligatures:normal;font-variant-caps:normal;font-variant-numeric:normal;font-variant-east-asian:normal;font-variation-settings:'wght' 700;white-space:pre;shape-inside:url(#rect844);fill:#111111;fill-opacity:1;stroke-width:1.51186"
       id="path858" />
  </g>
</svg>
